<?xml version="1.0" encoding="UTF-8" standalone="no"?>
<svg
   xmlns:dc="http://purl.org/dc/elements/1.1/"
   xmlns:cc="http://creativecommons.org/ns#"
   xmlns:rdf="http://www.w3.org/1999/02/22-rdf-syntax-ns#"
   xmlns:svg="http://www.w3.org/2000/svg"
   xmlns="http://www.w3.org/2000/svg"
   version="1.1"
   width="128"
   height="128"
   viewBox="0 0 128 128"
   id="svg2">
  <metadata
     id="metadata10">
    <rdf:RDF>
      <cc:Work
         rdf:about="">
        <dc:format>image/svg+xml</dc:format>
        <dc:type
           rdf:resource="http://purl.org/dc/dcmitype/StillImage" />
        <dc:title></dc:title>
      </cc:Work>
    </rdf:RDF>
  </metadata>
  <defs
     id="defs8">
    <clipPath
       id="clipPath4181"
       clipPathUnits="userSpaceOnUse">
      <path
         id="path4183"
         d="m -746.42773,330.64844 a 176.42857,176.42857 0 0 0 -163.09766,109.35547 176.42857,176.42857 0 0 0 163.09766,109.50195 176.42857,176.42857 0 0 0 163.0957,-109.35742 176.42857,176.42857 0 0 0 -163.0957,-109.5 z"
         style="opacity:0.8;fill:#ffffff;fill-opacity:1;fill-rule:nonzero;stroke:none;stroke-width:1;stroke-linecap:round;stroke-linejoin:round;stroke-miterlimit:4;stroke-dasharray:none;stroke-dashoffset:0;stroke-opacity:1" />
    </clipPath>
  </defs>
  <path
     style="fill:none;fill-opacity:1;stroke-width:1.20164"
     d="M 64.00117,2.0161468e-7 A 63.999997,64.000001 0 0 0 -2.2892569e-7,63.998827 63.999997,64.000001 0 0 0 64.00117,128 63.999997,64.000001 0 0 0 128,63.998827 63.999997,64.000001 0 0 0 64.00117,2.0161468e-7 Z"
     id="path4187" />
  <path
     id="path5340"
     d="M 72.351575,92.004321 V 78.002163 H 109.69067 V 92.004321 H 72.351575 M 51.34833,64 23.203989,35.995679 h 19.789718 l 23.150244,23.103573 c 2.707078,2.753749 2.707078,7.234444 0,9.894854 L 43.133733,92.004321 H 23.34401 Z"
     style="fill:#ffffff;fill-opacity:1;stroke-width:1.20164" />
</svg>
