<?xml version="1.0" encoding="UTF-8" standalone="no"?>
<svg
   xmlns:dc="http://purl.org/dc/elements/1.1/"
   xmlns:cc="http://creativecommons.org/ns#"
   xmlns:rdf="http://www.w3.org/1999/02/22-rdf-syntax-ns#"
   xmlns:svg="http://www.w3.org/2000/svg"
   xmlns="http://www.w3.org/2000/svg"
   version="1.1"
   width="512"
   height="512"
   viewBox="0 0 512.00001 512.00001"
   id="svg2">
  <metadata
     id="metadata10">
    <rdf:RDF>
      <cc:Work
         rdf:about="">
        <dc:format>image/svg+xml</dc:format>
        <dc:type
           rdf:resource="http://purl.org/dc/dcmitype/StillImage" />
        <dc:title></dc:title>
      </cc:Work>
    </rdf:RDF>
  </metadata>
  <defs
     id="defs8">
    <clipPath
       id="clipPath4181"
       clipPathUnits="userSpaceOnUse">
      <path
         id="path4183"
         d="m -746.42773,330.64844 a 176.42857,176.42857 0 0 0 -163.09766,109.35547 176.42857,176.42857 0 0 0 163.09766,109.50195 176.42857,176.42857 0 0 0 163.0957,-109.35742 176.42857,176.42857 0 0 0 -163.0957,-109.5 z"
         style="opacity:0.8;fill:#ffffff;fill-opacity:1;fill-rule:nonzero;stroke:none;stroke-width:1;stroke-linecap:round;stroke-linejoin:round;stroke-miterlimit:4;stroke-dasharray:none;stroke-dashoffset:0;stroke-opacity:1" />
    </clipPath>
  </defs>
  <path
     id="path951"
     d="M 441.47617,244.09523 H 405.7619 v -95.23808 c 0,-26.42859 -21.42859,-47.61906 -47.61906,-47.61906 H 262.90477 V 65.523826 A 59.523808,59.523809 0 0 0 203.38095,5.9999999 59.523808,59.523809 0 0 0 143.85715,65.523826 V 101.23809 H 48.619061 A 47.619045,47.619046 0 0 0 1.0000005,148.85715 v 90.47618 H 36.714285 c 35.714249,0 64.285715,28.57144 64.285715,64.28573 0,35.71427 -28.571466,64.28571 -64.285715,64.28571 H 1.0000005 v 90.47617 A 47.619045,47.619046 0 0 0 48.619061,506 h 90.476169 v -35.71428 c 0,-35.71428 28.57144,-64.28572 64.28572,-64.28572 35.71428,0 64.28572,28.57144 64.28572,64.28572 V 506 h 90.47617 a 47.619045,47.619046 0 0 0 47.61906,-47.61906 v -95.23809 h 35.71427 A 59.523808,59.523809 0 0 0 501,303.61906 59.523808,59.523809 0 0 0 441.47617,244.09523 Z"
     style="fill:#ffcc44;fill-opacity:1;stroke-width:23.8094" />
  <g
     id="g972"
     transform="matrix(0.77420112,0,0,0.77420116,57.804509,108.55216)">
    <path
       id="path4187"
       d="M 256.00232,63.869493 A 126.58209,126.58209 0 0 0 129.41791,190.44926 126.58209,126.58209 0 0 0 256.00232,317.03367 126.58209,126.58209 0 0 0 382.5821,190.44926 126.58209,126.58209 0 0 0 256.00232,63.869493 Z"
       style="fill:#000000;fill-opacity:1;stroke-width:2.37665" />
    <path
       style="fill:#ffffff;fill-opacity:1;stroke-width:2.37665"
       d="m 272.51813,245.83979 v -27.6941 h 73.85095 v 27.6941 h -73.85095 m -41.54117,-55.38821 -55.66515,-55.38821 h 39.141 l 45.7876,45.69529 c 5.35418,5.44649 5.35418,14.30861 0,19.57049 l -45.51065,45.51064 h -39.14101 z"
       id="path5340" />
  </g>
  <path
     style="color:#000000;font-style:normal;font-variant:normal;font-weight:normal;font-stretch:normal;font-size:medium;line-height:normal;font-family:sans-serif;font-variant-ligatures:normal;font-variant-position:normal;font-variant-caps:normal;font-variant-numeric:normal;font-variant-alternates:normal;font-variant-east-asian:normal;font-feature-settings:normal;font-variation-settings:normal;text-indent:0;text-align:start;text-decoration:none;text-decoration-line:none;text-decoration-style:solid;text-decoration-color:#000000;letter-spacing:normal;word-spacing:normal;text-transform:none;writing-mode:lr-tb;direction:ltr;text-orientation:mixed;dominant-baseline:auto;baseline-shift:baseline;text-anchor:start;white-space:normal;shape-padding:0;shape-margin:0;inline-size:0;clip-rule:nonzero;display:inline;overflow:visible;visibility:visible;isolation:auto;mix-blend-mode:normal;color-interpolation:sRGB;color-interpolation-filters:linearRGB;solid-color:#000000;solid-opacity:1;vector-effect:none;fill:#000000;fill-opacity:1;fill-rule:nonzero;stroke:none;stroke-width:23.2726;stroke-linecap:butt;stroke-linejoin:miter;stroke-miterlimit:4;stroke-dasharray:none;stroke-dashoffset:0;stroke-opacity:1;color-rendering:auto;image-rendering:auto;shape-rendering:auto;text-rendering:auto;enable-background:accumulate;stop-color:#000000;stop-opacity:1;opacity:1"
     d="M 209.45508 0 C 171.03342 7.9244656e-06 139.63671 31.396698 139.63672 69.818359 L 139.63672 93.091797 L 58.181641 93.091797 C 26.186554 93.091786 -1.3060493e-05 119.27835 0 151.27344 L 0 251.3457 L 46.544922 251.3457 C 75.247941 251.3457 97.746094 273.84184 97.746094 302.54492 C 97.746094 331.24795 75.247941 353.74609 46.544922 353.74609 L 0 353.74609 L 0 453.81836 C -6.1865496e-06 485.81344 26.186559 512.00001 58.181641 512 L 158.25391 512 L 158.25391 465.45508 C 158.25391 436.75203 180.75204 414.25391 209.45508 414.25391 C 238.15815 414.25391 260.6543 436.75203 260.6543 465.45508 L 260.6543 512 L 360.72656 512 C 392.72164 512.00001 418.90821 485.81344 418.9082 453.81836 L 418.9082 372.36328 L 442.18164 372.36328 C 480.6033 372.3633 511.99998 340.96658 512 302.54492 C 512.00002 264.12324 480.60333 232.72654 442.18164 232.72656 L 418.9082 232.72656 L 418.9082 151.27344 C 418.9082 119.15078 392.60309 93.091797 360.72656 93.091797 L 279.27344 93.091797 L 279.27344 69.818359 C 279.27345 31.39668 247.87676 -1.8490435e-05 209.45508 0 z M 209.45508 23.273438 C 235.2993 23.273425 256.00001 43.974132 256 69.818359 L 256 116.36328 L 360.72656 116.36328 C 380.04999 116.36328 395.63672 131.73057 395.63672 151.27344 L 395.63672 256 L 442.18164 256 C 468.02587 255.99999 488.72658 276.70069 488.72656 302.54492 C 488.72655 328.38914 468.02585 349.09181 442.18164 349.0918 L 395.63672 349.0918 L 395.63672 453.81836 C 395.63672 473.23599 380.14419 488.72657 360.72656 488.72656 L 283.92773 488.72656 L 283.92773 465.45508 C 283.92773 424.33996 250.57021 390.98242 209.45508 390.98242 C 168.33997 390.98242 134.98242 424.33996 134.98242 465.45508 L 134.98242 488.72656 L 58.181641 488.72656 C 38.764012 488.72657 23.273434 473.23599 23.273438 453.81836 L 23.273438 377.01758 L 46.544922 377.01758 C 87.660018 377.01758 121.01758 343.66003 121.01758 302.54492 C 121.01758 261.42978 87.660018 228.07227 46.544922 228.07227 L 23.273438 228.07227 L 23.273438 151.27344 C 23.27343 131.8558 38.764009 116.36327 58.181641 116.36328 L 162.9082 116.36328 L 162.9082 69.818359 C 162.9082 43.974145 183.61087 23.273443 209.45508 23.273438 z "
     id="path978" />
</svg>
