<?xml version="1.0" encoding="UTF-8" standalone="no"?>
<svg
   xmlns:dc="http://purl.org/dc/elements/1.1/"
   xmlns:cc="http://creativecommons.org/ns#"
   xmlns:rdf="http://www.w3.org/1999/02/22-rdf-syntax-ns#"
   xmlns:svg="http://www.w3.org/2000/svg"
   xmlns="http://www.w3.org/2000/svg"
   id="svg835"
   viewBox="0 0 24 24"
   height="24"
   width="24"
   version="1.1">
  <metadata
     id="metadata841">
    <rdf:RDF>
      <cc:Work
         rdf:about="">
        <dc:format>image/svg+xml</dc:format>
        <dc:type
           rdf:resource="http://purl.org/dc/dcmitype/StillImage" />
        <dc:title></dc:title>
      </cc:Work>
    </rdf:RDF>
  </metadata>
  <defs
     id="defs839" />
  <path
     id="path833"
     d="M20.5,11H19V7C19,5.89 18.1,5 17,5H13V3.5A2.5,2.5 0 0,0 10.5,1A2.5,2.5 0 0,0 8,3.5V5H4A2,2 0 0,0 2,7V10.8H3.5C5,10.8 6.2,12 6.2,13.5C6.2,15 5,16.2 3.5,16.2H2V20A2,2 0 0,0 4,22H7.8V20.5C7.8,19 9,17.8 10.5,17.8C12,17.8 13.2,19 13.2,20.5V22H17A2,2 0 0,0 19,20V16H20.5A2.5,2.5 0 0,0 23,13.5A2.5,2.5 0 0,0 20.5,11Z" />
  <path
     style="color:#000000;font-style:normal;font-variant:normal;font-weight:normal;font-stretch:normal;font-size:medium;line-height:normal;font-family:sans-serif;font-variant-ligatures:normal;font-variant-position:normal;font-variant-caps:normal;font-variant-numeric:normal;font-variant-alternates:normal;font-variant-east-asian:normal;font-feature-settings:normal;font-variation-settings:normal;text-indent:0;text-align:start;text-decoration:none;text-decoration-line:none;text-decoration-style:solid;text-decoration-color:#000000;letter-spacing:normal;word-spacing:normal;text-transform:none;writing-mode:lr-tb;direction:ltr;text-orientation:mixed;dominant-baseline:auto;baseline-shift:baseline;text-anchor:start;white-space:normal;shape-padding:0;shape-margin:0;inline-size:0;clip-rule:nonzero;display:inline;overflow:visible;visibility:visible;isolation:auto;mix-blend-mode:normal;color-interpolation:sRGB;color-interpolation-filters:linearRGB;solid-color:#000000;solid-opacity:1;vector-effect:none;fill:#000000;fill-opacity:1;fill-rule:nonzero;stroke:none;stroke-width:1;stroke-linecap:butt;stroke-linejoin:miter;stroke-miterlimit:4;stroke-dasharray:none;stroke-dashoffset:0;stroke-opacity:1;color-rendering:auto;image-rendering:auto;shape-rendering:auto;text-rendering:auto;enable-background:accumulate;stop-color:#000000"
     d="M 20.5,11 H 19 V 7 C 19,5.89 18.1,5 17,5 H 13 V 3.5 C 13,2.1192881 11.880712,1 10.5,1 9.1192881,1 8,2.1192881 8,3.5 V 5 H 4 C 2.8954305,5 2,5.8954305 2,7 v 3.8 H 3.5 C 5,10.8 6.2,12 6.2,13.5 6.2,15 5,16.2 3.5,16.2 H 2 V 20 c 0,1.104569 0.8954305,2 2,2 h 3.8 v -1.5 c 0,-1.5 1.2,-2.7 2.7,-2.7 1.5,0 2.7,1.2 2.7,2.7 V 22 H 17 c 1.104569,0 2,-0.895431 2,-2 v -4 h 1.5 C 21.880712,16 23,14.880712 23,13.5 23,12.119288 21.880712,11 20.5,11 Z"
     id="path847" />
  <path
     style="color:#000000;font-style:normal;font-variant:normal;font-weight:normal;font-stretch:normal;font-size:medium;line-height:normal;font-family:sans-serif;font-variant-ligatures:normal;font-variant-position:normal;font-variant-caps:normal;font-variant-numeric:normal;font-variant-alternates:normal;font-variant-east-asian:normal;font-feature-settings:normal;font-variation-settings:normal;text-indent:0;text-align:start;text-decoration:none;text-decoration-line:none;text-decoration-style:solid;text-decoration-color:#000000;letter-spacing:normal;word-spacing:normal;text-transform:none;writing-mode:lr-tb;direction:ltr;text-orientation:mixed;dominant-baseline:auto;baseline-shift:baseline;text-anchor:start;white-space:normal;shape-padding:0;shape-margin:0;inline-size:0;clip-rule:nonzero;display:inline;overflow:visible;visibility:visible;isolation:auto;mix-blend-mode:normal;color-interpolation:sRGB;color-interpolation-filters:linearRGB;solid-color:#000000;solid-opacity:1;vector-effect:none;fill:#ffffff;fill-opacity:1;fill-rule:nonzero;stroke:none;stroke-width:1;stroke-linecap:butt;stroke-linejoin:miter;stroke-miterlimit:4;stroke-dasharray:none;stroke-dashoffset:0;stroke-opacity:1;color-rendering:auto;image-rendering:auto;shape-rendering:auto;text-rendering:auto;enable-background:accumulate;stop-color:#000000"
     d="m 10.5,0.5 c -1.6509319,0 -3,1.3490681 -3,3 v 1 H 4 C 2.6252104,4.5 1.5,5.6252104 1.5,7 v 4.300781 h 2 c 1.2333333,0 2.1992187,0.965886 2.1992188,2.199219 0,1.233333 -0.9658855,2.199219 -2.1992188,2.199219 h -2 V 20 c 0,1.37479 1.1252104,2.5 2.5,2.5 h 4.3007812 v -2 c 0,-1.233333 0.9658855,-2.199219 2.1992188,-2.199219 1.233333,0 2.199219,0.965886 2.199219,2.199219 v 2 H 17 c 1.37479,0 2.5,-1.12521 2.5,-2.5 v -3.5 h 1 c 1.650932,0 3,-1.349068 3,-3 0,-1.650932 -1.349068,-3 -3,-3 h -1 V 7 C 19.5,5.6197297 18.369697,4.5 17,4.5 h -3.5 v -1 c 0,-1.6509319 -1.349068,-3 -3,-3 z m 0,1 c 1.110492,0 2,0.8895082 2,2 v 2 H 17 c 0.830303,0 1.5,0.6602703 1.5,1.5 v 4.5 h 2 c 1.110492,0 2,0.889508 2,2 0,1.110492 -0.889508,2 -2,2 h -2 V 20 c 0,0.834349 -0.665651,1.5 -1.5,1.5 h -3.300781 v -1 c 0,-1.766667 -1.432552,-3.199219 -3.199219,-3.199219 -1.7666667,0 -3.1992188,1.432552 -3.1992188,3.199219 v 1 H 4 C 3.1656506,21.5 2.5,20.834349 2.5,20 v -3.300781 h 1 c 1.7666667,0 3.1992187,-1.432552 3.1992188,-3.199219 0,-1.766667 -1.4325521,-3.199219 -3.1992188,-3.199219 h -1 V 7 C 2.5,6.1656506 3.1656506,5.5 4,5.5 h 4.5 v -2 c 0,-1.1104918 0.8895082,-2 2,-2 z"
     id="path849" />
</svg>
